<?xml version="1.0" standalone="no"?><!DOCTYPE svg PUBLIC "-//W3C//DTD SVG 1.1//EN" "http://www.w3.org/Graphics/SVG/1.1/DTD/svg11.dtd"><svg t="1701451079486" class="icon" viewBox="0 0 1024 1024" version="1.1" xmlns="http://www.w3.org/2000/svg" p-id="7213" xmlns:xlink="http://www.w3.org/1999/xlink" width="200" height="200"><path d="M512 572.7c-209 0-364.2-230.8-370.7-240.6-7.8-11.7-4.5-27.5 7.2-35.3 11.6-7.8 27.5-4.6 35.3 7.1 1.4 2.2 146.7 217.8 328.2 217.8S838.8 306.2 840.2 304c7.9-11.8 23.7-14.9 35.3-7.1 11.7 7.8 14.9 23.5 7.2 35.3C876.2 342 721 572.7 512 572.7z" p-id="7214"></path><path d="M512 731.4c-14.1 0-25.5-11.4-25.5-25.5V562.3c0-14.1 11.4-25.5 25.5-25.5s25.5 11.4 25.5 25.5V706c0 14-11.4 25.4-25.5 25.4zM206.1 642.9c-6.5 0-13-2.5-18-7.5-9.9-9.9-9.9-26.1 0-36l114.5-114.5c9.9-9.9 26.1-9.9 36 0s9.9 26.1 0 36L224.1 635.4c-4.9 5-11.4 7.5-18 7.5zM817.7 641.6c-6.5 0-13-2.5-18-7.5l-110-109.9c-9.9-9.9-9.9-26.1 0-36 9.9-9.9 26.1-9.9 36 0l110 109.9c9.9 9.9 9.9 26.1 0 36-5 5-11.5 7.5-18 7.5z" p-id="7215"></path></svg>