<?xml version="1.0" standalone="no"?><!DOCTYPE svg PUBLIC "-//W3C//DTD SVG 1.1//EN" "http://www.w3.org/Graphics/SVG/1.1/DTD/svg11.dtd"><svg t="1701451075488" class="icon" viewBox="0 0 1024 1024" version="1.1" xmlns="http://www.w3.org/2000/svg" p-id="7078" xmlns:xlink="http://www.w3.org/1999/xlink" width="200" height="200"><path d="M512 766.7c-209 0-364.2-230.8-370.7-240.6-5.6-8.5-5.6-19.6 0-28.1 6.5-9.8 161.7-240.6 370.7-240.6S876.2 488.2 882.7 498c5.6 8.5 5.6 19.6 0 28.1-6.5 9.8-161.7 240.6-370.7 240.6zM193.9 512c36 48.2 164 203.7 318.1 203.7S794.2 560.2 830.1 512c-36-48.2-164-203.7-318.1-203.7S229.8 463.8 193.9 512z" p-id="7079"></path><path d="M512 637c-68.9 0-124.9-56.1-124.9-125s56-125 124.9-125 124.9 56.1 124.9 125-56 125-124.9 125z m0-199c-40.8 0-74 33.2-74 74s33.2 74 74 74 74-33.2 74-74-33.2-74-74-74z" p-id="7080"></path></svg>